<svg width="14" height="14" viewBox="0 0 14 14" fill="none" xmlns="http://www.w3.org/2000/svg">
<path d="M9.84417 3.9351C8.8338 3.35901 8.04898 2.91152 7.41159 2.62122C6.77182 2.32983 6.21647 2.16528 5.67646 2.22133C4.81942 2.31029 4.03921 2.75436 3.53076 3.44549C3.2096 3.88203 3.07588 4.44233 3.01144 5.13599C2.94726 5.82688 2.94726 6.72233 2.94727 7.87394V7.92193C2.94726 9.07354 2.94726 9.969 3.01144 10.6599C3.07588 11.3535 3.2096 11.9138 3.53076 12.3504C4.03921 13.0415 4.81942 13.4856 5.67646 13.5745C6.21647 13.6306 6.77182 13.466 7.41159 13.1747C8.04898 12.8844 8.83379 12.4369 9.84415 11.8608L9.88516 11.8374C10.8955 11.2614 11.6803 10.8139 12.2536 10.4138C12.8286 10.0126 13.2524 9.61894 13.4747 9.126C13.827 8.34441 13.827 7.45147 13.4747 6.66988C13.2524 6.17694 12.8286 5.78323 12.2536 5.38205C11.6803 4.98202 10.8955 4.53452 9.88516 3.95847L9.84417 3.9351Z" fill="#555555"/>
</svg>
