<svg width="26" height="24" viewBox="0 0 26 24" fill="none" xmlns="http://www.w3.org/2000/svg">
<path d="M22.625 6.44298C24.1109 9.01666 24.8539 10.3035 24.9237 11.7107C24.9333 11.9034 24.9333 12.0965 24.9237 12.2892C24.8539 13.6965 24.1109 14.9833 22.625 17.557C21.1391 20.1307 20.3961 21.4175 19.2124 22.1816C19.0503 22.2863 18.8831 22.3828 18.7114 22.4709C17.4577 23.114 15.9718 23.114 13 23.114C10.0282 23.114 8.54226 23.114 7.28864 22.4709C7.11696 22.3828 6.94975 22.2863 6.78763 22.1816C5.60388 21.4175 4.86092 20.1307 3.375 17.557C1.88909 14.9833 1.14613 13.6965 1.07627 12.2892C1.0667 12.0965 1.0667 11.9034 1.07627 11.7107C1.14613 10.3035 1.88909 9.01666 3.37501 6.44298C4.86092 3.8693 5.60388 2.58247 6.78763 1.81835C6.94975 1.7137 7.11696 1.61716 7.28864 1.52909C8.54226 0.885986 10.0282 0.885986 13 0.885986C15.9718 0.885986 17.4577 0.885987 18.7114 1.52909C18.8831 1.61716 19.0503 1.7137 19.2124 1.81835C20.3961 2.58247 21.1391 3.86931 22.625 6.44298Z" stroke="#808080" stroke-width="1.5"/>
<path d="M10.6854 10.9545C10.9223 10.3792 11.3792 9.92227 11.9546 9.68536L15.0776 8.39941C16.0365 8.00456 16.9954 8.96349 16.6006 9.92241L15.3146 13.0454C15.0777 13.6208 14.6208 14.0777 14.0455 14.3146L10.9224 15.6006C9.96351 15.9954 9.00459 15.0365 9.39944 14.0775L10.6854 10.9545Z" stroke="#808080" stroke-width="1.5"/>
</svg>
