<svg width="28" height="28" viewBox="0 0 28 28" fill="none" xmlns="http://www.w3.org/2000/svg">
<path d="M11.375 3.5C11.375 3.01675 10.9832 2.625 10.5 2.625C10.0168 2.625 9.625 3.01675 9.625 3.5V24.5C9.625 24.9832 10.0168 25.375 10.5 25.375C10.9832 25.375 11.375 24.9832 11.375 24.5L11.375 3.5Z" fill="white"/>
<path d="M18.375 3.5C18.375 3.01675 17.9832 2.625 17.5 2.625C17.0168 2.625 16.625 3.01675 16.625 3.5L16.625 24.5C16.625 24.9832 17.0168 25.375 17.5 25.375C17.9833 25.375 18.375 24.9832 18.375 24.5V3.5Z" fill="white"/>
</svg>
